<mxfile host="app.diagrams.net" agent="Mozilla/5.0 (Windows NT 10.0; Win64; x64) AppleWebKit/537.36 (KHTML, like Gecko) Chrome/131.0.0.0 Safari/537.36" version="26.0.6">
  <diagram name="Page-1" id="OIZB1IzfGnqWNxISPh1V">
    <mxGraphModel dx="1272" dy="744" grid="1" gridSize="10" guides="1" tooltips="1" connect="1" arrows="1" fold="1" page="1" pageScale="1" pageWidth="850" pageHeight="1100" math="0" shadow="0">
      <root>
        <mxCell id="0" />
        <mxCell id="1" parent="0" />
        <mxCell id="MrhDUD2E3tZPDghcdG8x-24" value="" style="group" vertex="1" connectable="0" parent="1">
          <mxGeometry x="65" y="169" width="720" height="810" as="geometry" />
        </mxCell>
        <mxCell id="MrhDUD2E3tZPDghcdG8x-25" value=":BatteryPack" style="shape=umlLifeline;perimeter=lifelinePerimeter;whiteSpace=wrap;html=1;container=1;collapsible=0;recursiveResize=0;outlineConnect=0;rounded=1;shadow=0;comic=0;labelBackgroundColor=none;strokeWidth=1;fontFamily=Verdana;fontSize=12;align=center;" vertex="1" parent="MrhDUD2E3tZPDghcdG8x-24">
          <mxGeometry x="350" y="37.67" width="100" height="662.33" as="geometry" />
        </mxCell>
        <mxCell id="MrhDUD2E3tZPDghcdG8x-26" value="" style="html=1;points=[];perimeter=orthogonalPerimeter;rounded=0;shadow=0;comic=0;labelBackgroundColor=none;strokeWidth=1;fontFamily=Verdana;fontSize=12;align=center;" vertex="1" parent="MrhDUD2E3tZPDghcdG8x-25">
          <mxGeometry x="45" y="94.1860465116279" width="10" height="122.44186046511626" as="geometry" />
        </mxCell>
        <mxCell id="MrhDUD2E3tZPDghcdG8x-27" value="B1:Battery" style="shape=umlLifeline;perimeter=lifelinePerimeter;whiteSpace=wrap;html=1;container=1;collapsible=0;recursiveResize=0;outlineConnect=0;rounded=1;shadow=0;comic=0;labelBackgroundColor=none;strokeWidth=1;fontFamily=Verdana;fontSize=12;align=center;" vertex="1" parent="MrhDUD2E3tZPDghcdG8x-24">
          <mxGeometry x="120" y="37.67" width="100" height="662.33" as="geometry" />
        </mxCell>
        <mxCell id="MrhDUD2E3tZPDghcdG8x-28" value="" style="html=1;points=[];perimeter=orthogonalPerimeter;rounded=0;shadow=0;comic=0;labelBackgroundColor=none;strokeWidth=1;fontFamily=Verdana;fontSize=12;align=center;" vertex="1" parent="MrhDUD2E3tZPDghcdG8x-27">
          <mxGeometry x="45" y="94.1860465116279" width="10" height="47.09302325581395" as="geometry" />
        </mxCell>
        <mxCell id="MrhDUD2E3tZPDghcdG8x-29" value="B2:Battery" style="shape=umlLifeline;perimeter=lifelinePerimeter;whiteSpace=wrap;html=1;container=1;collapsible=0;recursiveResize=0;outlineConnect=0;rounded=1;shadow=0;comic=0;labelBackgroundColor=none;strokeWidth=1;fontFamily=Verdana;fontSize=12;align=center;" vertex="1" parent="MrhDUD2E3tZPDghcdG8x-24">
          <mxGeometry x="585" y="37.67" width="100" height="662.33" as="geometry" />
        </mxCell>
        <mxCell id="MrhDUD2E3tZPDghcdG8x-30" value="" style="html=1;points=[];perimeter=orthogonalPerimeter;rounded=0;shadow=0;comic=0;labelBackgroundColor=none;strokeWidth=1;fontFamily=Verdana;fontSize=12;align=center;" vertex="1" parent="MrhDUD2E3tZPDghcdG8x-29">
          <mxGeometry x="45" y="160.11627906976742" width="10" height="56.51162790697674" as="geometry" />
        </mxCell>
        <mxCell id="MrhDUD2E3tZPDghcdG8x-31" value="checkSoC" style="swimlane;whiteSpace=wrap;html=1;" vertex="1" parent="MrhDUD2E3tZPDghcdG8x-24">
          <mxGeometry width="720" height="760" as="geometry" />
        </mxCell>
        <mxCell id="MrhDUD2E3tZPDghcdG8x-32" value="loop" style="shape=umlFrame;whiteSpace=wrap;html=1;pointerEvents=0;" vertex="1" parent="MrhDUD2E3tZPDghcdG8x-31">
          <mxGeometry x="15" y="96.77" width="685" height="643.23" as="geometry" />
        </mxCell>
        <mxCell id="MrhDUD2E3tZPDghcdG8x-33" value="" style="html=1;points=[[0,0,0,0,5],[0,1,0,0,-5],[1,0,0,0,5],[1,1,0,0,-5]];perimeter=orthogonalPerimeter;outlineConnect=0;targetShapes=umlLifeline;portConstraint=eastwest;newEdgeStyle={&quot;curved&quot;:0,&quot;rounded&quot;:0};" vertex="1" parent="MrhDUD2E3tZPDghcdG8x-31">
          <mxGeometry x="395" y="330.8139534883721" width="10" height="56.51162790697674" as="geometry" />
        </mxCell>
        <mxCell id="MrhDUD2E3tZPDghcdG8x-34" value="" style="html=1;points=[[0,0,0,0,5],[0,1,0,0,-5],[1,0,0,0,5],[1,1,0,0,-5]];perimeter=orthogonalPerimeter;outlineConnect=0;targetShapes=umlLifeline;portConstraint=eastwest;newEdgeStyle={&quot;curved&quot;:0,&quot;rounded&quot;:0};" vertex="1" parent="MrhDUD2E3tZPDghcdG8x-31">
          <mxGeometry x="630" y="330.8139534883721" width="10" height="56.51162790697674" as="geometry" />
        </mxCell>
        <mxCell id="MrhDUD2E3tZPDghcdG8x-35" value="" style="endArrow=block;endFill=1;endSize=6;html=1;rounded=0;exitX=1;exitY=0;exitDx=0;exitDy=5;exitPerimeter=0;entryX=0;entryY=0;entryDx=0;entryDy=5;entryPerimeter=0;strokeColor=default;align=center;verticalAlign=middle;fontFamily=Helvetica;fontSize=11;fontColor=default;labelBackgroundColor=default;" edge="1" parent="MrhDUD2E3tZPDghcdG8x-31" source="MrhDUD2E3tZPDghcdG8x-33" target="MrhDUD2E3tZPDghcdG8x-34">
          <mxGeometry width="160" relative="1" as="geometry">
            <mxPoint x="410" y="359.06976744186045" as="sourcePoint" />
            <mxPoint x="570" y="359.06976744186045" as="targetPoint" />
          </mxGeometry>
        </mxCell>
        <mxCell id="MrhDUD2E3tZPDghcdG8x-36" value="getSoC()" style="edgeLabel;html=1;align=center;verticalAlign=middle;resizable=0;points=[];labelBackgroundColor=none;" vertex="1" connectable="0" parent="MrhDUD2E3tZPDghcdG8x-35">
          <mxGeometry x="0.0123" y="1" relative="1" as="geometry">
            <mxPoint y="-8" as="offset" />
          </mxGeometry>
        </mxCell>
        <mxCell id="MrhDUD2E3tZPDghcdG8x-37" value="" style="endArrow=block;endFill=1;endSize=6;html=1;rounded=0;exitX=1;exitY=1;exitDx=0;exitDy=-5;exitPerimeter=0;entryX=0;entryY=1;entryDx=0;entryDy=-5;entryPerimeter=0;strokeColor=default;align=center;verticalAlign=middle;fontFamily=Helvetica;fontSize=11;fontColor=default;labelBackgroundColor=default;" edge="1" parent="MrhDUD2E3tZPDghcdG8x-31" source="MrhDUD2E3tZPDghcdG8x-33" target="MrhDUD2E3tZPDghcdG8x-34">
          <mxGeometry width="160" relative="1" as="geometry">
            <mxPoint x="410" y="377.90697674418607" as="sourcePoint" />
            <mxPoint x="570" y="377.90697674418607" as="targetPoint" />
          </mxGeometry>
        </mxCell>
        <mxCell id="MrhDUD2E3tZPDghcdG8x-38" value="[B2,SoC = B2.MaxCharge] stopCharging()" style="edgeLabel;html=1;align=center;verticalAlign=middle;resizable=0;points=[];labelBackgroundColor=none;" vertex="1" connectable="0" parent="MrhDUD2E3tZPDghcdG8x-37">
          <mxGeometry x="-0.0074" relative="1" as="geometry">
            <mxPoint y="-11" as="offset" />
          </mxGeometry>
        </mxCell>
        <mxCell id="MrhDUD2E3tZPDghcdG8x-50" value="B1-Charging" style="shape=umlFrame;whiteSpace=wrap;html=1;pointerEvents=0;width=80;height=23;" vertex="1" parent="MrhDUD2E3tZPDghcdG8x-31">
          <mxGeometry x="81" y="109.99999999999994" width="600" height="183" as="geometry" />
        </mxCell>
        <mxCell id="MrhDUD2E3tZPDghcdG8x-75" value="B2-Charging" style="shape=umlFrame;whiteSpace=wrap;html=1;pointerEvents=0;width=80;height=23;" vertex="1" parent="MrhDUD2E3tZPDghcdG8x-31">
          <mxGeometry x="81" y="303" width="600" height="103" as="geometry" />
        </mxCell>
        <mxCell id="MrhDUD2E3tZPDghcdG8x-115" value="B1-Supplying" style="shape=umlFrame;whiteSpace=wrap;html=1;pointerEvents=0;width=80;height=23;" vertex="1" parent="MrhDUD2E3tZPDghcdG8x-31">
          <mxGeometry x="81" y="416" width="600" height="183" as="geometry" />
        </mxCell>
        <mxCell id="MrhDUD2E3tZPDghcdG8x-130" style="edgeStyle=orthogonalEdgeStyle;rounded=0;orthogonalLoop=1;jettySize=auto;html=1;entryX=0.933;entryY=0.027;entryDx=0;entryDy=0;entryPerimeter=0;exitX=-0.041;exitY=0.006;exitDx=0;exitDy=0;exitPerimeter=0;endArrow=block;endFill=1;" edge="1" parent="MrhDUD2E3tZPDghcdG8x-31" source="MrhDUD2E3tZPDghcdG8x-127" target="MrhDUD2E3tZPDghcdG8x-128">
          <mxGeometry relative="1" as="geometry">
            <Array as="points">
              <mxPoint x="285" y="450" />
            </Array>
          </mxGeometry>
        </mxCell>
        <mxCell id="MrhDUD2E3tZPDghcdG8x-131" value="getSoC()" style="edgeLabel;html=1;align=center;verticalAlign=middle;resizable=0;points=[];labelBackgroundColor=none;" vertex="1" connectable="0" parent="MrhDUD2E3tZPDghcdG8x-130">
          <mxGeometry x="-0.0229" relative="1" as="geometry">
            <mxPoint x="1" y="-9" as="offset" />
          </mxGeometry>
        </mxCell>
        <mxCell id="MrhDUD2E3tZPDghcdG8x-132" style="edgeStyle=orthogonalEdgeStyle;rounded=0;orthogonalLoop=1;jettySize=auto;html=1;entryX=-0.056;entryY=0.338;entryDx=0;entryDy=0;entryPerimeter=0;endArrow=none;endFill=0;startArrow=block;startFill=1;" edge="1" parent="MrhDUD2E3tZPDghcdG8x-31" target="MrhDUD2E3tZPDghcdG8x-127">
          <mxGeometry relative="1" as="geometry">
            <mxPoint x="175" y="493" as="sourcePoint" />
            <Array as="points" />
          </mxGeometry>
        </mxCell>
        <mxCell id="MrhDUD2E3tZPDghcdG8x-133" value="[B1.SoC = 0] stopSupplying()" style="edgeLabel;html=1;align=center;verticalAlign=middle;resizable=0;points=[];labelBackgroundColor=none;" vertex="1" connectable="0" parent="MrhDUD2E3tZPDghcdG8x-132">
          <mxGeometry x="-0.0214" relative="1" as="geometry">
            <mxPoint y="-10" as="offset" />
          </mxGeometry>
        </mxCell>
        <mxCell id="MrhDUD2E3tZPDghcdG8x-134" style="edgeStyle=orthogonalEdgeStyle;rounded=0;orthogonalLoop=1;jettySize=auto;html=1;entryX=0.022;entryY=0.019;entryDx=0;entryDy=0;entryPerimeter=0;exitX=0.996;exitY=0.544;exitDx=0;exitDy=0;exitPerimeter=0;endArrow=block;endFill=1;" edge="1" parent="MrhDUD2E3tZPDghcdG8x-31" source="MrhDUD2E3tZPDghcdG8x-127" target="MrhDUD2E3tZPDghcdG8x-129">
          <mxGeometry relative="1" as="geometry" />
        </mxCell>
        <mxCell id="MrhDUD2E3tZPDghcdG8x-135" value="[B1.SoC = 0] getSoC()" style="edgeLabel;html=1;align=center;verticalAlign=middle;resizable=0;points=[];labelBackgroundColor=none;" vertex="1" connectable="0" parent="MrhDUD2E3tZPDghcdG8x-134">
          <mxGeometry x="0.0107" y="1" relative="1" as="geometry">
            <mxPoint x="-19" y="-10" as="offset" />
          </mxGeometry>
        </mxCell>
        <mxCell id="MrhDUD2E3tZPDghcdG8x-136" style="edgeStyle=orthogonalEdgeStyle;rounded=0;orthogonalLoop=1;jettySize=auto;html=1;entryX=0.022;entryY=0.979;entryDx=0;entryDy=0;entryPerimeter=0;endArrow=block;endFill=1;" edge="1" parent="MrhDUD2E3tZPDghcdG8x-31" source="MrhDUD2E3tZPDghcdG8x-127" target="MrhDUD2E3tZPDghcdG8x-129">
          <mxGeometry relative="1" as="geometry">
            <Array as="points">
              <mxPoint x="518" y="578" />
            </Array>
          </mxGeometry>
        </mxCell>
        <mxCell id="MrhDUD2E3tZPDghcdG8x-137" value="[B1.SoC = 0 and&amp;nbsp;&lt;span style=&quot;background-color: transparent; color: light-dark(rgb(0, 0, 0), rgb(255, 255, 255));&quot;&gt;B2.SoC &amp;gt;0]&amp;nbsp;&lt;/span&gt;&lt;span style=&quot;text-align: center;&quot;&gt;stopSupplying&lt;/span&gt;&lt;span style=&quot;background-color: transparent; color: light-dark(rgb(0, 0, 0), rgb(255, 255, 255));&quot;&gt;()&lt;/span&gt;" style="edgeLabel;html=1;align=left;verticalAlign=middle;resizable=0;points=[];labelBackgroundColor=none;" vertex="1" connectable="0" parent="MrhDUD2E3tZPDghcdG8x-136">
          <mxGeometry x="0.025" y="1" relative="1" as="geometry">
            <mxPoint x="-115" y="-12" as="offset" />
          </mxGeometry>
        </mxCell>
        <mxCell id="MrhDUD2E3tZPDghcdG8x-127" value="" style="html=1;points=[];perimeter=orthogonalPerimeter;rounded=0;shadow=0;comic=0;labelBackgroundColor=none;strokeWidth=1;fontFamily=Verdana;fontSize=12;align=center;" vertex="1" parent="MrhDUD2E3tZPDghcdG8x-31">
          <mxGeometry x="395" y="449" width="10" height="130" as="geometry" />
        </mxCell>
        <mxCell id="MrhDUD2E3tZPDghcdG8x-128" value="" style="html=1;points=[];perimeter=orthogonalPerimeter;rounded=0;shadow=0;comic=0;labelBackgroundColor=none;strokeWidth=1;fontFamily=Verdana;fontSize=12;align=center;" vertex="1" parent="MrhDUD2E3tZPDghcdG8x-31">
          <mxGeometry x="165" y="449" width="10" height="50" as="geometry" />
        </mxCell>
        <mxCell id="MrhDUD2E3tZPDghcdG8x-129" value="" style="html=1;points=[];perimeter=orthogonalPerimeter;rounded=0;shadow=0;comic=0;labelBackgroundColor=none;strokeWidth=1;fontFamily=Verdana;fontSize=12;align=center;" vertex="1" parent="MrhDUD2E3tZPDghcdG8x-31">
          <mxGeometry x="630" y="519" width="10" height="60" as="geometry" />
        </mxCell>
        <mxCell id="MrhDUD2E3tZPDghcdG8x-139" value="B2-Supplying" style="shape=umlFrame;whiteSpace=wrap;html=1;pointerEvents=0;width=80;height=23;" vertex="1" parent="MrhDUD2E3tZPDghcdG8x-31">
          <mxGeometry x="81" y="609" width="600" height="103" as="geometry" />
        </mxCell>
        <mxCell id="MrhDUD2E3tZPDghcdG8x-146" value="" style="html=1;points=[[0,0,0,0,5],[0,1,0,0,-5],[1,0,0,0,5],[1,1,0,0,-5]];perimeter=orthogonalPerimeter;outlineConnect=0;targetShapes=umlLifeline;portConstraint=eastwest;newEdgeStyle={&quot;curved&quot;:0,&quot;rounded&quot;:0};" vertex="1" parent="MrhDUD2E3tZPDghcdG8x-31">
          <mxGeometry x="395" y="625" width="10" height="60" as="geometry" />
        </mxCell>
        <mxCell id="MrhDUD2E3tZPDghcdG8x-147" value="" style="html=1;points=[[0,0,0,0,5],[0,1,0,0,-5],[1,0,0,0,5],[1,1,0,0,-5]];perimeter=orthogonalPerimeter;outlineConnect=0;targetShapes=umlLifeline;portConstraint=eastwest;newEdgeStyle={&quot;curved&quot;:0,&quot;rounded&quot;:0};" vertex="1" parent="MrhDUD2E3tZPDghcdG8x-31">
          <mxGeometry x="630" y="625" width="10" height="60" as="geometry" />
        </mxCell>
        <mxCell id="MrhDUD2E3tZPDghcdG8x-148" value="" style="endArrow=block;endFill=1;endSize=6;html=1;rounded=0;exitX=1;exitY=0;exitDx=0;exitDy=5;exitPerimeter=0;entryX=0;entryY=0;entryDx=0;entryDy=5;entryPerimeter=0;strokeColor=default;align=center;verticalAlign=middle;fontFamily=Helvetica;fontSize=11;fontColor=default;labelBackgroundColor=default;" edge="1" parent="MrhDUD2E3tZPDghcdG8x-31" source="MrhDUD2E3tZPDghcdG8x-146" target="MrhDUD2E3tZPDghcdG8x-147">
          <mxGeometry width="160" relative="1" as="geometry">
            <mxPoint x="410" y="655" as="sourcePoint" />
            <mxPoint x="570" y="655" as="targetPoint" />
          </mxGeometry>
        </mxCell>
        <mxCell id="MrhDUD2E3tZPDghcdG8x-149" value="getSoC()" style="edgeLabel;html=1;align=center;verticalAlign=middle;resizable=0;points=[];labelBackgroundColor=none;" vertex="1" connectable="0" parent="MrhDUD2E3tZPDghcdG8x-148">
          <mxGeometry x="0.0123" y="1" relative="1" as="geometry">
            <mxPoint y="-8" as="offset" />
          </mxGeometry>
        </mxCell>
        <mxCell id="MrhDUD2E3tZPDghcdG8x-150" value="" style="endArrow=block;endFill=1;endSize=6;html=1;rounded=0;exitX=1;exitY=1;exitDx=0;exitDy=-5;exitPerimeter=0;entryX=0;entryY=1;entryDx=0;entryDy=-5;entryPerimeter=0;strokeColor=default;align=center;verticalAlign=middle;fontFamily=Helvetica;fontSize=11;fontColor=default;labelBackgroundColor=default;" edge="1" parent="MrhDUD2E3tZPDghcdG8x-31" source="MrhDUD2E3tZPDghcdG8x-146" target="MrhDUD2E3tZPDghcdG8x-147">
          <mxGeometry width="160" relative="1" as="geometry">
            <mxPoint x="410" y="675" as="sourcePoint" />
            <mxPoint x="570" y="675" as="targetPoint" />
          </mxGeometry>
        </mxCell>
        <mxCell id="MrhDUD2E3tZPDghcdG8x-151" value="[B2,SoC = 0] stopSupplying()" style="edgeLabel;html=1;align=center;verticalAlign=middle;resizable=0;points=[];labelBackgroundColor=none;" vertex="1" connectable="0" parent="MrhDUD2E3tZPDghcdG8x-150">
          <mxGeometry x="-0.0074" relative="1" as="geometry">
            <mxPoint y="-9" as="offset" />
          </mxGeometry>
        </mxCell>
        <mxCell id="MrhDUD2E3tZPDghcdG8x-39" style="edgeStyle=orthogonalEdgeStyle;rounded=0;orthogonalLoop=1;jettySize=auto;html=1;entryX=0.933;entryY=0.027;entryDx=0;entryDy=0;entryPerimeter=0;exitX=-0.041;exitY=0.006;exitDx=0;exitDy=0;exitPerimeter=0;endArrow=block;endFill=1;" edge="1" parent="MrhDUD2E3tZPDghcdG8x-24" source="MrhDUD2E3tZPDghcdG8x-26" target="MrhDUD2E3tZPDghcdG8x-28">
          <mxGeometry relative="1" as="geometry">
            <Array as="points">
              <mxPoint x="285" y="132.80232558139534" />
            </Array>
          </mxGeometry>
        </mxCell>
        <mxCell id="MrhDUD2E3tZPDghcdG8x-40" value="getSoC()" style="edgeLabel;html=1;align=center;verticalAlign=middle;resizable=0;points=[];labelBackgroundColor=none;" vertex="1" connectable="0" parent="MrhDUD2E3tZPDghcdG8x-39">
          <mxGeometry x="-0.0229" relative="1" as="geometry">
            <mxPoint x="1" y="-9" as="offset" />
          </mxGeometry>
        </mxCell>
        <mxCell id="MrhDUD2E3tZPDghcdG8x-41" style="edgeStyle=orthogonalEdgeStyle;rounded=0;orthogonalLoop=1;jettySize=auto;html=1;entryX=-0.056;entryY=0.338;entryDx=0;entryDy=0;entryPerimeter=0;endArrow=none;endFill=0;startArrow=block;startFill=1;" edge="1" parent="MrhDUD2E3tZPDghcdG8x-24" target="MrhDUD2E3tZPDghcdG8x-26">
          <mxGeometry relative="1" as="geometry">
            <mxPoint x="175" y="173.30232558139534" as="sourcePoint" />
            <Array as="points" />
          </mxGeometry>
        </mxCell>
        <mxCell id="MrhDUD2E3tZPDghcdG8x-42" value="[B1.SoC = B1.Maxcharge] stopChanging()" style="edgeLabel;html=1;align=center;verticalAlign=middle;resizable=0;points=[];labelBackgroundColor=none;" vertex="1" connectable="0" parent="MrhDUD2E3tZPDghcdG8x-41">
          <mxGeometry x="-0.0214" relative="1" as="geometry">
            <mxPoint y="-10" as="offset" />
          </mxGeometry>
        </mxCell>
        <mxCell id="MrhDUD2E3tZPDghcdG8x-43" style="edgeStyle=orthogonalEdgeStyle;rounded=0;orthogonalLoop=1;jettySize=auto;html=1;entryX=0.022;entryY=0.019;entryDx=0;entryDy=0;entryPerimeter=0;exitX=0.996;exitY=0.544;exitDx=0;exitDy=0;exitPerimeter=0;endArrow=block;endFill=1;" edge="1" parent="MrhDUD2E3tZPDghcdG8x-24" source="MrhDUD2E3tZPDghcdG8x-26" target="MrhDUD2E3tZPDghcdG8x-30">
          <mxGeometry relative="1" as="geometry" />
        </mxCell>
        <mxCell id="MrhDUD2E3tZPDghcdG8x-44" value="[B1.SoC = B1.MaxCharge] getSoC()" style="edgeLabel;html=1;align=center;verticalAlign=middle;resizable=0;points=[];labelBackgroundColor=none;" vertex="1" connectable="0" parent="MrhDUD2E3tZPDghcdG8x-43">
          <mxGeometry x="0.0107" y="1" relative="1" as="geometry">
            <mxPoint x="-19" y="-10" as="offset" />
          </mxGeometry>
        </mxCell>
        <mxCell id="MrhDUD2E3tZPDghcdG8x-45" style="edgeStyle=orthogonalEdgeStyle;rounded=0;orthogonalLoop=1;jettySize=auto;html=1;entryX=0.022;entryY=0.979;entryDx=0;entryDy=0;entryPerimeter=0;endArrow=block;endFill=1;" edge="1" parent="MrhDUD2E3tZPDghcdG8x-24" source="MrhDUD2E3tZPDghcdG8x-26" target="MrhDUD2E3tZPDghcdG8x-30">
          <mxGeometry relative="1" as="geometry">
            <Array as="points">
              <mxPoint x="518" y="253.36046511627907" />
            </Array>
          </mxGeometry>
        </mxCell>
        <mxCell id="MrhDUD2E3tZPDghcdG8x-46" value="[B1.SoC = B1.MaxCharge and&lt;div&gt;B2.SoC = B2.MaxCharge] startCharging()&lt;/div&gt;" style="edgeLabel;html=1;align=left;verticalAlign=middle;resizable=0;points=[];labelBackgroundColor=none;" vertex="1" connectable="0" parent="MrhDUD2E3tZPDghcdG8x-45">
          <mxGeometry x="0.025" y="1" relative="1" as="geometry">
            <mxPoint x="-111" y="-18" as="offset" />
          </mxGeometry>
        </mxCell>
        <mxCell id="MrhDUD2E3tZPDghcdG8x-47" value="&lt;b&gt;PowerSupplyingPart Realization Interaction Model&lt;/b&gt;" style="text;fontSize=16;verticalAlign=middle;strokeColor=none;fillColor=none;whiteSpace=wrap;html=1;" vertex="1" parent="1">
          <mxGeometry x="40" y="40" width="388" height="30" as="geometry" />
        </mxCell>
        <mxCell id="MrhDUD2E3tZPDghcdG8x-48" value="" style="dashed=0;shape=line;strokeWidth=2;noLabel=1;strokeColor=#0C8CF2;opacity=50;" vertex="1" parent="1">
          <mxGeometry x="40" y="65" width="385" height="10" as="geometry" />
        </mxCell>
      </root>
    </mxGraphModel>
  </diagram>
</mxfile>
